<?xml version="1.0" standalone="no"?>
<!DOCTYPE svg PUBLIC "-//W3C//DTD SVG 1.1//EN" "http://www.w3.org/Graphics/SVG/1.1/DTD/svg11.dtd" >
<svg xmlns="http://www.w3.org/2000/svg">
<metadata></metadata>
<defs>
<font id="frontage_shadowshadow" horiz-adv-x="1208" >
<font-face units-per-em="2048" ascent="1536" descent="-512" />
<missing-glyph horiz-adv-x="1126" />
<glyph horiz-adv-x="2048" />
<glyph horiz-adv-x="2048" />
<glyph unicode="&#xd;" horiz-adv-x="2048" />
<glyph unicode=" "  horiz-adv-x="1126" />
<glyph unicode="&#x09;" horiz-adv-x="1126" />
<glyph unicode="&#xa0;" horiz-adv-x="1126" />
<glyph unicode="!" d="M348 154h103l-27 -27zM348 -256h307l205 205v35l103 -35v-307h-308zM758 256l102 102v854l103 -34v-1127h-103v205h-102z" />
<glyph unicode="&#x22;" horiz-adv-x="1382" d="M205 768h307l154 154v-154h307l205 205v239l102 -34v-512h-307l-154 51v-51h-307z" />
<glyph unicode="#" horiz-adv-x="2048" d="M246 102h192l-14 -59zM352 -256h316l180 180l-43 -180h315l205 205l37 153h37l205 205l14 58l164 -58l-76 -307h-193l-86 -358h-315l-127 41l-10 -41h-316zM369 614h155l-39 -39zM1524 614l205 205l12 51l164 -51l-74 -305h-176l24 100h-155zM1610 1126l24 105l164 -53 l-12 -52h-176z" />
<glyph unicode="$" horiz-adv-x="1597" d="M553 -410h307l205 205v117l172 172q129 129 135 309q103 -131 103 -291q0 -148 -86 -267t-222 -167v-180h-307zM772 344q24 -50 74 -74q-24 50 -74 74zM772 958q24 -49 74 -73q-24 49 -74 73zM987 864l168 60l150 149q122 -98 157 -252l-229 -82q-106 101 -246 125z" />
<glyph unicode="%" horiz-adv-x="2111" d="M455 682q50 -16 98 -16q127 0 217 90l205 205q60 60 82 145q57 -44 84 -113l-324 -428q-30 7 -55 15q-174 59 -307 102zM477 -305l205 205l1010 1331l12 -2l203 -156l-389 -512q-104 -15 -177 -88q-187 -187 -204 -205q-90 -90 -90 -217q0 -53 14 -94l-277 -365z M1255 -240q50 -16 99 -16q127 0 217 90l205 205q60 60 82 145q52 -42 81 -103.5t29 -131.5q0 -127 -90 -217t-217 -90q-48 0 -98 16q-162 49 -308 102z" />
<glyph unicode="&#x26;" horiz-adv-x="1966" d="M580 -231q73 -25 147 -25q90 0 175 34.5t151 100.5l100 101l186 -185l422 422l-184 184l84 86l203 -206l-185 -187l185 -184l-217 -217l-279 92l-8 -8q-66 -66 -151 -100.5t-175 -34.5q-71 0 -145 22q-25 9 -154 52.5t-155 52.5zM1141 838l37 34q83 83 100 201 q87 -87 103.5 -209.5t-44.5 -224.5z" />
<glyph unicode="'" horiz-adv-x="921" d="M205 768h307l205 205v239l102 -34v-512h-307z" />
<glyph unicode="(" horiz-adv-x="1122" d="M446 -326l267 154l174 174q48 -144 133 -276l-266 -154zM717 717q0 252 100 493l203 -116q-201 -315 -201 -684q0 -121 25 -246q-127 267 -127 553z" />
<glyph unicode=")" horiz-adv-x="1120" d="M471 -326l205 205q239 384 239 838q0 180 -36 340q139 -307 139 -647q0 -453 -240 -838z" />
<glyph unicode="*" horiz-adv-x="2056" d="M338 -6l434 252v-281l-127 -74zM772 -256h307l205 205v178l102 -59v-426h-307zM1284 983v229l102 -34v-136zM1511 674l156 88l158 158l149 -258l-219 -130zM1513 -6l205 205l47 82l209 -123l-153 -267z" />
<glyph unicode="+" horiz-adv-x="1740" d="M205 358h409v-102h-102zM614 -51h308l204 205v204h205l205 205v35l102 -35v-307h-409v-410h-307zM1126 870v138l103 -35v-103h-103z" />
<glyph unicode="," horiz-adv-x="921" d="M205 -461h184l205 205l121 240l104 -35v-268l-123 -244h-184z" />
<glyph unicode="-" d="M143 358h717l205 205v35l102 -35v-307h-716z" />
<glyph unicode="." horiz-adv-x="921" d="M205 -256h307l205 205v35l102 -35v-307h-307z" />
<glyph unicode="/" horiz-adv-x="1454" d="M328 -322l204 205l754 1327l209 -118l-860 -1516z" />
<glyph unicode="0" horiz-adv-x="2027" d="M655 717q0 109 50 207q96 49 206 49q160 0 291 -103q-182 -8 -310 -135.5t-134 -308.5q-103 131 -103 291zM666 -215q118 -41 245 -41q157 0 297 59.5t246 165.5q8 8 57.5 57t91 90.5t56.5 57.5q106 106 165.5 246.5t59.5 296.5q0 26 -4 84q107 -181 107 -391 q0 -209 -103 -385.5t-279.5 -279.5t-385.5 -103q-132 0 -250 41q-57 19 -303 102z" />
<glyph unicode="1" d="M348 -256h307l205 205v1263l103 -34v-1536h-308z" />
<glyph unicode="2" horiz-adv-x="1718" d="M143 -256h1104l205 205v35l102 -35v-307h-1103zM301 492l274 137l205 205l-22 47q-23 44 -23 92q67 0 120 -38t75 -99q-92 -62 -92 -170q0 -38 16 -78l-111 -131l-135 -68zM1008 256l325 385q119 145 119 332q102 -133 102 -307q0 -188 -118 -332l-68 -78h-360z" />
<glyph unicode="3" horiz-adv-x="1699" d="M311 973h387l-67 -103h-13zM358 461h334q56 0 102.5 -28t73.5 -75h-149l-19 45l-63 -36zM528 -229q72 -27 164 -27q106 0 200.5 40t164.5 112q16 17 101.5 102t103.5 104q69 71 108 164t39 195q102 -139 102 -307q0 -212 -150 -362t-362 -150q-80 0 -163 26zM1106 928 l221 334l250 -84l-270 -410q-79 107 -201 160z" />
<glyph unicode="4" horiz-adv-x="1832" d="M246 102h624v-102h-317zM838 614l32 142v-142h-32zM870 -256h308l204 205v153l205 205v35l103 -35v-307h-205v-358h-307zM932 1020l39 168l61 -23zM1382 614v342l103 -34v-308h-103z" />
<glyph unicode="5" horiz-adv-x="1716" d="M549 344l94 96q51 21 90 21q71 0 125 -42t70 -97q-39 -24 -60 -54q-45 15 -80 52.5t-49 85.5l-137 -80zM567 -229q89 -27 166 -27q103 0 196 38.5t163 108.5q19 18 104 103.5t102 101.5q71 71 111.5 165.5t40.5 199.5q102 -139 102 -307q0 -212 -150 -362t-362 -150 q-89 0 -163 26l-308 103h-2zM827 961l2 12h109q-56 0 -111 -12zM938 973h205l205 205v34l102 -34v-308h-205q-141 103 -307 103z" />
<glyph unicode="6" horiz-adv-x="1679" d="M573 -225q74 -27 164 -27q104 0 198.5 40t164.5 110q17 18 102 102t103 102q70 70 109.5 164.5t39.5 198.5q102 -139 102 -307q0 -212 -150 -362t-362 -150q-89 0 -163 26zM737 465q67 0 120 -37.5t73 -97.5q-34 -24 -56 -60q-61 22 -99 75t-38 120zM967 977l118 242 l205 -101l-98 -207q-111 60 -225 66z" />
<glyph unicode="7" horiz-adv-x="1736" d="M246 973h633l-45 -105h-281zM424 154h98l-12 -29zM664 -289l204 205l105 238h117l204 204v308h-98l252 579l207 -67l-344 -791l86 -29v-307h-234l-192 -442z" />
<glyph unicode="8" horiz-adv-x="1638" d="M551 -229q78 -27 166 -27q209 0 362 150q18 18 103 102t102 102q71 72 110.5 165.5t39.5 197.5q102 -139 102 -307q0 -212 -150 -362t-362 -150q-80 0 -166 26zM717 461q67 0 119.5 -37t72.5 -98q-29 -17 -57 -58q-60 20 -97.5 73t-37.5 120zM1260 844q60 88 69 196 q105 -115 105 -272q0 -69 -27 -145q-46 136 -147 221z" />
<glyph unicode="9" horiz-adv-x="1597" d="M539 281q65 -22 133 -25l-8 -16zM696 973q66 0 118.5 -37.5t74.5 -97.5q-30 -18 -58 -58q-60 20 -97.5 73t-37.5 120zM725 -328l205 205l426 860q57 111 57 236q103 -141 103 -307q0 -123 -58 -236l-426 -860z" />
<glyph unicode=":" horiz-adv-x="921" d="M205 -256h307l205 205v35l102 -35v-307h-307zM205 563h307l205 205v35l102 -35v-307h-307z" />
<glyph unicode=";" horiz-adv-x="921" d="M205 -461h184l205 205l121 240l104 -35v-268l-123 -244h-184zM205 563h307l205 205v35l102 -35v-307h-307z" />
<glyph unicode="&#x3c;" horiz-adv-x="1683" d="M983 664l209 104l172 172l135 -274l-262 -127zM1055 -20l205 204l34 70l205 -100l-137 -277z" />
<glyph unicode="=" horiz-adv-x="1740" d="M205 154h1126l205 204v35l102 -35v-307h-1126zM205 563h102l-26 -26zM1434 666l102 102v35l102 -35v-307h-102v205h-102z" />
<glyph unicode="&#x3e;" horiz-adv-x="1683" d="M424 -20l809 397l205 205v12l102 -49v-271l-809 -397z" />
<glyph unicode="?" horiz-adv-x="1439" d="M428 817l154 154q8 2 22 2q68 0 118.5 -44.5t59.5 -109.5h-127l-59 -59zM451 154h102l-27 -27zM451 -256h307l205 205v35l102 -35v-307h-307zM860 256l103 102v107q157 155 192 190q65 65 102.5 153t38.5 181q103 -134 103 -299q0 -160 -93 -286.5t-241 -174.5v-178h-102 v205h-103z" />
<glyph unicode="@" horiz-adv-x="2109" d="M698 766q9 84 47 158q74 38 158 47zM711 -217q122 -39 241 -39q189 0 359 88l205 205l-33 72q51 26 102 77l205 205q135 135 135 326q0 22 -4 80q107 -181 107 -387q0 -125 -62 -231t-168 -168t-231 -62q-33 0 -47 2l98 -221q-170 -88 -358 -88q-122 0 -244 39 q-194 69 -305 102z" />
<glyph unicode="A" horiz-adv-x="2222" d="M123 -256h350l205 205l27 51h698l57 -102h-540l-140 -256h-350zM985 512l70 127l69 -127h-139zM1544 -256h350l162 162l146 -264h-351z" />
<glyph unicode="B" horiz-adv-x="2109" d="M348 -256h871q189 0 325 133q17 18 102 103.5t103 103.5q129 129 135 309q103 -131 103 -291q0 -190 -135 -325t-326 -135h-871zM858 256v102q1 -1 81 -1h100q179 1 180 1q50 0 88.5 -28t56.5 -74h-506zM860 870v103h256q50 0 89 -28.5t57 -74.5h-402zM1708 772 q68 108 74 236q102 -130 102 -291q0 -78 -26 -154q-43 126 -150 209z" />
<glyph unicode="C" horiz-adv-x="1923" d="M676 717q0 111 49 207q96 49 207 49q160 0 291 -103q-182 -8 -310.5 -135.5t-134.5 -308.5q-102 130 -102 291zM690 -217q119 -39 242 -39q156 0 296.5 59.5t246.5 165.5q12 11 88 87.5t100 99.5l219 -168l-31 -41q-106 -142 -266.5 -223.5t-345.5 -81.5q-123 0 -242 39 q-124 38 -307 102zM1331 748l244 186l104 104q98 -67 172 -166l31 -41l-244 -186z" />
<glyph unicode="D" horiz-adv-x="2048" d="M348 -256h563q157 0 297 59.5t246 165.5q8 8 57.5 57t91 90.5t56.5 57.5q106 106 165.5 246.5t59.5 296.5q0 26 -4 84q107 -181 107 -391q0 -209 -103 -385.5t-279.5 -279.5t-385.5 -103h-564zM860 256v717h51q161 0 289 -103h-237v-614h-103z" />
<glyph unicode="E" horiz-adv-x="2007" d="M348 -256h1127l204 205v35l103 -35v-307h-1127zM860 717v256h615l204 205v34l103 -34v-308h-819v-153h-103zM1321 256l154 154v34l102 -34v-154h-256z" />
<glyph unicode="F" horiz-adv-x="1904" d="M348 -256h307l205 205v256h410l205 205v34l102 -34v-308h-614v-460h-308zM860 717v256h615l204 205v34l103 -34v-308h-819v-153h-103z" />
<glyph unicode="G" horiz-adv-x="2025" d="M696 717q0 111 49 207q96 49 207 49q160 0 291 -103q-182 -8 -310 -135.5t-134 -308.5q-103 131 -103 291zM709 -217q122 -39 243 -39q157 0 298 59.5t247 165.5q25 27 205 207q48 48 70 80v240l102 -35v-512q-106 -142 -267 -224.5t-347 -82.5q-125 0 -244 39 q-59 21 -307 102zM1380 768l215 166l105 104q117 -81 201 -207l-129 -100v37h-392z" />
<glyph unicode="H" horiz-adv-x="2232" d="M348 -256h307l205 205v256h512v-103h-409v-460h-308zM860 717v495l103 -34v-461h-103zM1372 -256h307l205 205v1263l103 -34v-1536h-308z" />
<glyph unicode="I" d="M348 -256h307l205 205v1263l103 -34v-1536h-308z" />
<glyph unicode="J" horiz-adv-x="1736" d="M459 -225q88 -31 182 -31q115 0 218 44t181 122l205 205q77 79 120.5 181t43.5 216v700l102 -34v-973q0 -153 -75.5 -282.5t-205 -205t-282.5 -75.5q-91 0 -180 28q-187 66 -305 103z" />
<glyph unicode="K" horiz-adv-x="2037" d="M348 -256h307l205 205v428l129 -207l-26 -29v-499h-308zM860 920v292l103 -34v-146zM1247 868l373 408l295 -98l-512 -557zM1255 -256h363l149 150l158 -252h-362z" />
<glyph unicode="L" horiz-adv-x="1884" d="M348 -256h1127l204 205v35l103 -35v-307h-1127zM860 256v956l103 -34v-922h-103z" />
<glyph unicode="M" horiz-adv-x="2322" d="M309 -256h307l205 205l39 495l117 -125l-53 -677h-308zM1061 227l205 205l172 186l28 -387l-98 -106zM1503 -256h307l205 205l-96 1255l82 -26l117 -1536h-308z" />
<glyph unicode="N" horiz-adv-x="2232" d="M348 -256h307l205 205v497l103 -98v-706h-308zM1595 -256h84l205 205v1263l103 -34v-1536h-84z" />
<glyph unicode="O" horiz-adv-x="2027" d="M655 717q0 109 50 207q96 49 206 49q160 0 291 -103q-182 -8 -310 -135.5t-134 -308.5q-103 131 -103 291zM666 -215q118 -41 245 -41q157 0 297 59.5t246 165.5q8 8 57.5 57t91 90.5t56.5 57.5q106 106 165.5 246.5t59.5 296.5q0 26 -4 84q107 -181 107 -391 q0 -209 -103 -385.5t-279.5 -279.5t-385.5 -103q-132 0 -250 41q-57 19 -303 102z" />
<glyph unicode="P" horiz-adv-x="1843" d="M348 -256h307l205 205v205h51q115 0 217.5 43t180.5 120q18 18 103 103.5t101 101.5q78 78 122 181.5t44 218.5v16q103 -150 103 -324q0 -153 -75.5 -282.5t-205 -205t-282.5 -75.5h-256v-409h-308zM860 666v307h51q61 0 115 -28t90 -75h-153v-204h-103z" />
<glyph unicode="Q" horiz-adv-x="2129" d="M676 717q0 111 49 207q96 49 207 49q160 0 291 -103q-182 -8 -310.5 -135.5t-134.5 -308.5q-102 130 -102 291zM690 -217q119 -39 242 -39q156 0 303 61l41 -61h366l205 205l-155 237q101 105 157 242t56 289q0 26 -4 84q106 -179 106 -391q0 -152 -56 -289t-157 -242 l156 -237h-367l-110 36q-107 -36 -234 -36q-123 0 -242 39q-60 18 -307 102z" />
<glyph unicode="R" horiz-adv-x="1972" d="M348 -256h307l205 205v205h37l68 -103h-2v-409h-308zM860 666v307h51q61 0 115 -28t90 -75h-153v-204h-103zM1165 -256h367l145 145l162 -247h-366zM1413 442q122 76 194 203t72 277v16q103 -150 103 -324q0 -126 -53 -238t-146 -192z" />
<glyph unicode="S" horiz-adv-x="1597" d="M551 -229q1 0 3 -1t3 -1q-1 0 -3 1t-3 1zM557 -231q73 -25 150 -25q190 0 325 135l205 205q129 129 135 309q103 -131 103 -291q0 -190 -135 -325t-326 -135q-79 0 -146 24q-57 17 -309 103h-2zM772 344q24 -50 74 -74q-24 50 -74 74zM772 958q24 -49 74 -73 q-24 49 -74 73zM987 864l168 60l150 149q122 -98 157 -252l-229 -82q-106 101 -246 125z" />
<glyph unicode="T" horiz-adv-x="1945" d="M205 973h512v-103h-205zM717 -256h307l205 205v1024h307l205 205v34l102 -34v-308h-512v-1228h-307z" />
<glyph unicode="U" horiz-adv-x="2150" d="M760 -221q103 -35 213 -35q136 0 257.5 51.5t213.5 143.5q15 15 57 57.5t89.5 89t58.5 57.5q92 92 143 213.5t51 257.5v598l103 -34v-871q0 -181 -89.5 -334.5t-242.5 -242t-334 -88.5q-110 0 -211 34q-155 48 -309 103zM819 614v598l103 -34v-816q-103 108 -103 252z " />
<glyph unicode="V" horiz-adv-x="2017" d="M860 -256h92l205 205l713 1304l229 -75l-839 -1536h-93z" />
<glyph unicode="W" horiz-adv-x="2320" d="M672 -256h92l205 205l153 399l109 -287l-160 -419h-92zM1354 -256h92l205 205l495 1294l195 -65l-588 -1536h-92z" />
<glyph unicode="X" horiz-adv-x="1925" d="M184 -256h363l205 205l145 231l150 -235l-193 -303h-362zM1174 -256h362l150 150l157 -252h-362zM1245 737l328 523l244 -82l-424 -676z" />
<glyph unicode="Y" horiz-adv-x="1828" d="M657 -256h308l204 205v551l478 760l243 -82l-618 -985v-551h-307z" />
<glyph unicode="Z" horiz-adv-x="1769" d="M184 -256h1162l204 205v35l103 -35v-307h-1161zM250 973h610l-55 -103h-248zM909 256l549 997l230 -75l-508 -922h-271z" />
<glyph unicode="[" horiz-adv-x="1218" d="M307 -461h461l205 205v35l102 -35v-307h-461zM819 51v1178l154 153v35l102 -35v-307h-153v-1024h-103z" />
<glyph unicode="\" horiz-adv-x="1454" d="M920 -322l268 152l160 160l147 -262l-268 -152z" />
<glyph unicode="]" horiz-adv-x="1218" d="M246 -461h461l204 205v1673l103 -35v-1945h-461z" />
<glyph unicode="^" horiz-adv-x="1261" d="M264 348l264 82l263 -82l161 162l207 -68l-61 -196l-262 82l-265 -82z" />
<glyph unicode="_" horiz-adv-x="1433" d="M-256 -614h1536l205 204v35l102 -35v-307h-1536z" />
<glyph unicode="`" horiz-adv-x="1261" d="M205 1528l586 -180l161 161l207 -67l-61 -197l-586 180z" />
<glyph unicode="a" horiz-adv-x="2222" d="M123 -256h350l205 205l27 51h698l57 -102h-540l-140 -256h-350zM985 512l70 127l69 -127h-139zM1544 -256h350l162 162l146 -264h-351z" />
<glyph unicode="b" horiz-adv-x="2109" d="M348 -256h871q189 0 325 133q17 18 102 103.5t103 103.5q129 129 135 309q103 -131 103 -291q0 -190 -135 -325t-326 -135h-871zM858 256v102q1 -1 81 -1h100q179 1 180 1q50 0 88.5 -28t56.5 -74h-506zM860 870v103h256q50 0 89 -28.5t57 -74.5h-402zM1708 772 q68 108 74 236q102 -130 102 -291q0 -78 -26 -154q-43 126 -150 209z" />
<glyph unicode="c" horiz-adv-x="1923" d="M676 717q0 111 49 207q96 49 207 49q160 0 291 -103q-182 -8 -310.5 -135.5t-134.5 -308.5q-102 130 -102 291zM690 -217q119 -39 242 -39q156 0 296.5 59.5t246.5 165.5q12 11 88 87.5t100 99.5l219 -168l-31 -41q-106 -142 -266.5 -223.5t-345.5 -81.5q-123 0 -242 39 q-124 38 -307 102zM1331 748l244 186l104 104q98 -67 172 -166l31 -41l-244 -186z" />
<glyph unicode="d" horiz-adv-x="2048" d="M348 -256h563q157 0 297 59.5t246 165.5q8 8 57.5 57t91 90.5t56.5 57.5q106 106 165.5 246.5t59.5 296.5q0 26 -4 84q107 -181 107 -391q0 -209 -103 -385.5t-279.5 -279.5t-385.5 -103h-564zM604 1483v2h2zM860 256v717h51q161 0 289 -103h-237v-614h-103z" />
<glyph unicode="e" horiz-adv-x="2007" d="M348 -256h1127l204 205v35l103 -35v-307h-1127zM860 717v256h615l204 205v34l103 -34v-308h-819v-153h-103zM1321 256l154 154v34l102 -34v-154h-256z" />
<glyph unicode="f" horiz-adv-x="1904" d="M348 -256h307l205 205v256h410l205 205v34l102 -34v-308h-614v-460h-308zM860 717v256h615l204 205v34l103 -34v-308h-819v-153h-103z" />
<glyph unicode="g" horiz-adv-x="2025" d="M696 717q0 111 49 207q96 49 207 49q160 0 291 -103q-182 -8 -310 -135.5t-134 -308.5q-103 131 -103 291zM709 -217q122 -39 243 -39q157 0 298 59.5t247 165.5q25 27 205 207q48 48 70 80v240l102 -35v-512q-106 -142 -267 -224.5t-347 -82.5q-125 0 -244 39 q-59 21 -307 102zM1380 768l215 166l105 104q117 -81 201 -207l-129 -100v37h-392z" />
<glyph unicode="h" horiz-adv-x="2232" d="M348 -256h307l205 205v256h512v-103h-409v-460h-308zM860 717v495l103 -34v-461h-103zM1372 -256h307l205 205v1263l103 -34v-1536h-308z" />
<glyph unicode="i" d="M348 -256h307l205 205v1263l103 -34v-1536h-308z" />
<glyph unicode="j" horiz-adv-x="1736" d="M459 -225q88 -31 182 -31q115 0 218 44t181 122l205 205q77 79 120.5 181t43.5 216v700l102 -34v-973q0 -153 -75.5 -282.5t-205 -205t-282.5 -75.5q-91 0 -180 28q-187 66 -305 103z" />
<glyph unicode="k" horiz-adv-x="2037" d="M348 -256h307l205 205v428l129 -207l-26 -29v-499h-308zM860 920v292l103 -34v-146zM1247 868l373 408l295 -98l-512 -557zM1255 -256h363l149 150l158 -252h-362z" />
<glyph unicode="l" horiz-adv-x="1884" d="M348 -256h1127l204 205v35l103 -35v-307h-1127zM860 256v956l103 -34v-922h-103z" />
<glyph unicode="m" horiz-adv-x="2322" d="M309 -256h307l205 205l39 495l117 -125l-53 -677h-308zM1061 227l205 205l172 186l28 -387l-98 -106zM1503 -256h307l205 205l-96 1255l82 -26l117 -1536h-308z" />
<glyph unicode="n" horiz-adv-x="2232" d="M348 -256h307l205 205v497l103 -98v-706h-308zM1595 -256h84l205 205v1263l103 -34v-1536h-84z" />
<glyph unicode="o" horiz-adv-x="2027" d="M655 717q0 109 50 207q96 49 206 49q160 0 291 -103q-182 -8 -310 -135.5t-134 -308.5q-103 131 -103 291zM666 -215q118 -41 245 -41q157 0 297 59.5t246 165.5q8 8 57.5 57t91 90.5t56.5 57.5q106 106 165.5 246.5t59.5 296.5q0 26 -4 84q107 -181 107 -391 q0 -209 -103 -385.5t-279.5 -279.5t-385.5 -103q-132 0 -250 41q-57 19 -303 102z" />
<glyph unicode="p" horiz-adv-x="1843" d="M348 -256h307l205 205v205h51q115 0 217.5 43t180.5 120q18 18 103 103.5t101 101.5q78 78 122 181.5t44 218.5v16q103 -150 103 -324q0 -153 -75.5 -282.5t-205 -205t-282.5 -75.5h-256v-409h-308zM860 666v307h51q61 0 115 -28t90 -75h-153v-204h-103z" />
<glyph unicode="q" horiz-adv-x="2129" d="M676 717q0 111 49 207q96 49 207 49q160 0 291 -103q-182 -8 -310.5 -135.5t-134.5 -308.5q-102 130 -102 291zM690 -217q119 -39 242 -39q156 0 303 61l41 -61h366l205 205l-155 237q101 105 157 242t56 289q0 26 -4 84q106 -179 106 -391q0 -152 -56 -289t-157 -242 l156 -237h-367l-110 36q-107 -36 -234 -36q-123 0 -242 39q-60 18 -307 102z" />
<glyph unicode="r" horiz-adv-x="1972" d="M348 -256h307l205 205v205h37l68 -103h-2v-409h-308zM860 666v307h51q61 0 115 -28t90 -75h-153v-204h-103zM1165 -256h367l145 145l162 -247h-366zM1413 442q122 76 194 203t72 277v16q103 -150 103 -324q0 -126 -53 -238t-146 -192z" />
<glyph unicode="s" horiz-adv-x="1597" d="M551 -229q1 0 3 -1t3 -1q-1 0 -3 1t-3 1zM557 -231q73 -25 150 -25q190 0 325 135l205 205q129 129 135 309q103 -131 103 -291q0 -190 -135 -325t-326 -135q-79 0 -146 24q-57 17 -309 103h-2zM772 344q24 -50 74 -74q-24 50 -74 74zM772 958q24 -49 74 -73 q-24 49 -74 73zM987 864l168 60l150 149q122 -98 157 -252l-229 -82q-106 101 -246 125z" />
<glyph unicode="t" horiz-adv-x="1945" d="M205 973h512v-103h-205zM717 -256h307l205 205v1024h307l205 205v34l102 -34v-308h-512v-1228h-307z" />
<glyph unicode="u" horiz-adv-x="2150" d="M760 -221q103 -35 213 -35q136 0 257.5 51.5t213.5 143.5q15 15 57 57.5t89.5 89t58.5 57.5q92 92 143 213.5t51 257.5v598l103 -34v-871q0 -181 -89.5 -334.5t-242.5 -242t-334 -88.5q-110 0 -211 34q-155 48 -309 103zM819 614v598l103 -34v-816q-103 108 -103 252z " />
<glyph unicode="v" horiz-adv-x="2017" d="M860 -256h92l205 205l713 1304l229 -75l-839 -1536h-93z" />
<glyph unicode="w" horiz-adv-x="2320" d="M672 -256h92l205 205l153 399l109 -287l-160 -419h-92zM1354 -256h92l205 205l495 1294l195 -65l-588 -1536h-92z" />
<glyph unicode="x" horiz-adv-x="1925" d="M184 -256h363l205 205l145 231l150 -235l-193 -303h-362zM1174 -256h362l150 150l157 -252h-362zM1245 737l328 523l244 -82l-424 -676z" />
<glyph unicode="y" horiz-adv-x="1828" d="M657 -256h308l204 205v551l478 760l243 -82l-618 -985v-551h-307z" />
<glyph unicode="z" horiz-adv-x="1769" d="M184 -256h1162l204 205v35l103 -35v-307h-1161zM250 973h610l-55 -103h-248zM909 256l549 997l230 -75l-508 -922h-271z" />
<glyph unicode="{" horiz-adv-x="1323" d="M782 -455l205 205l37 121q7 -43 36.5 -76t69.5 -45l50 -14l-90 -293zM893 717q27 73 27 155v357v4l151 151l19 -8l90 -293l-50 -14q-47 -15 -77.5 -55.5t-30.5 -91.5v-357q0 -81 -27 -155q27 -74 27 -156v-195q-45 18 -73.5 57t-28.5 89v356q0 83 -27 156z" />
<glyph unicode="|" d="M348 -461h307l205 205v1673l103 -35v-1945h-308z" />
<glyph unicode="}" horiz-adv-x="1320" d="M334 -455l49 15q110 34 190 114l205 205q135 135 135 326v356q0 41 21 76l80 80l-47 39q-54 47 -54 116v338q103 -128 103 -288v-357q0 -69 53 -116l47 -39l-47 -39q-53 -47 -53 -117v-356q0 -154 -91.5 -276t-234.5 -165l-49 -14z" />
<glyph unicode="~" horiz-adv-x="1386" d="M334 373l39 33q22 17 53 26q28 8 45 8q37 0 72 -18q79 -43 168 -43q51 0 104 16q65 17 121 64l41 33l86 86l90 -29l131 -160l-41 -33q-55 -45 -121 -63q-56 -17 -104 -17q-89 0 -168 43q-36 19 -72 19q-17 0 -45 -8t-53 -27l-37 -33z" />
<glyph unicode="&#xa1;" d="M348 -256h307l205 205v854l103 -35v-1126h-308zM348 973h103l-25 -25zM758 1075l102 103v34l103 -34v-308h-103v205h-102z" />
<glyph unicode="&#xa2;" horiz-adv-x="1611" d="M614 -410h308l204 205v78q23 17 39 35l166 166l219 -170q-54 -88 -137 -150.5t-184 -91.5v-174h-307zM717 512q0 15 4 47q32 4 47 4q61 0 114 -26.5t89 -73.5l14 -19q-108 -43 -149 -149q-55 36 -87 93.5t-32 123.5zM1001 422l242 186l94 94q136 -70 213 -196l-241 -189 l-103 80l-24 -35z" />
<glyph unicode="&#xa3;" horiz-adv-x="1863" d="M287 154h102l-27 -27zM287 -256h1126l205 205v35l102 -35v-307h-1126zM1004 666v223l10 -33l291 102l143 144q104 -75 145 -197l19 -49l-291 -102l-201 67q-14 -28 -14 -53v-102h-102zM1106 256l102 102v35l103 -35v-102h-205z" />
<glyph unicode="&#xa4;" horiz-adv-x="1699" d="M422 -31l127 127q89 -45 199 -45q107 0 198 45l127 -127l422 422l-127 127q44 94 44 198.5t-44 198.5l25 25l204 -205l-127 -127q44 -94 44 -198.5t-44 -198.5l127 -127l-217 -217l-127 127q-91 -45 -198 -45q-110 0 -199 45l-127 -127zM813 651q26 -13 43 -30 q21 -21 29 -43q-26 15 -41 30q-19 19 -31 43z" />
<glyph unicode="&#xa5;" horiz-adv-x="2033" d="M401 -51h359v-103h-51zM401 358h103l-25 -24zM760 -256h307l205 205h153l205 205v34l103 -34v-308h-359v-204h-307zM1505 870l244 390l244 -82l-363 -576v268h-125zM1528 461l102 102v35l103 -35v-307h-103v205h-102z" />
<glyph unicode="&#xa6;" d="M348 -461h307l205 205v547l103 -35v-819h-308zM348 666h307l205 204v547l103 -35v-819h-308z" />
<glyph unicode="&#xa7;" horiz-adv-x="1720" d="M610 -436q73 -25 148 -25q190 0 325 135l205 205q135 135 135 326q0 111 -49 207q101 138 101 305q102 -139 102 -307q0 -169 -100 -306q49 -96 49 -206q0 -125 -62 -231t-168 -168t-231 -62q-74 0 -145 22q-288 98 -310 105zM758 717q67 0 119 -38t73 -99 q-31 -22 -55 -56q-61 20 -99 73t-38 120zM1231 1153l125 125q122 -98 157 -252l-114 -41q-65 103 -168 168z" />
<glyph unicode="&#xa8;" horiz-adv-x="1536" d="M309 1391q24 -9 51 -9q62 0 107 45l176 177l74 -25q32 -13 59 -37q44 -44 44 -108.5t-44 -108.5q-45 -45 -110 -45q-29 0 -50 8zM926 1391q21 -9 49 -9q61 0 106 45l176 177l74 -25q33 -13 60 -37q44 -44 44 -108.5t-44 -108.5q-45 -45 -111 -45q-28 0 -49 8z" />
<glyph unicode="&#xa9;" d="M387 582q59 -19 115 -19q149 0 254 105q19 19 103 102.5t102 101.5q85 88 100 201h2q104 -106 104 -254t-104 -254q-104 -104 -254 -104q-59 0 -111 18q-52 16 -309 103h-2z" />
<glyph unicode="&#xaa;" horiz-adv-x="1253" d="M143 666h234l67 67h191l37 -67h233l164 163l143 -266h-233l-205 68h-53l-37 -68h-233z" />
<glyph unicode="&#xab;" horiz-adv-x="1511" d="M467 20l252 177l53 53l156 -223l-154 -109zM705 717l108 155l18 -14l-112 -162zM932 20l252 177l139 139l168 -242l-252 -176zM1167 717l111 157l213 -149l-164 -236z" />
<glyph unicode="&#xac;" horiz-adv-x="1863" d="M225 358h819v-102h-512zM1044 51h308l204 205v342l103 -35v-614h-307z" />
<glyph unicode="&#xad;" d="M143 358h717l205 205v35l102 -35v-307h-716z" />
<glyph unicode="&#xae;" d="M387 582q59 -19 115 -19q149 0 254 105q19 19 103 102.5t102 101.5q85 88 100 201h2q104 -106 104 -254t-104 -254q-104 -104 -254 -104q-59 0 -111 18q-52 16 -309 103h-2z" />
<glyph unicode="&#xb0;" horiz-adv-x="1003" d="M319 780q38 -12 80 -12q104 0 181 74q19 18 103.5 103t102.5 104q41 41 58 90q55 -36 87 -93.5t32 -123.5q0 -106 -75 -181t-181 -75q-41 0 -82 12q-187 61 -306 102z" />
<glyph unicode="&#xb1;" horiz-adv-x="1740" d="M205 -154h1126l205 205v35l102 -35v-307h-1126zM205 614h409v-102h-102zM1075 358l51 52v204h205l205 205v35l102 -35v-307h-409v-154h-154zM1126 1126v138l103 -35v-103h-103z" />
<glyph unicode="&#xb2;" horiz-adv-x="962" d="M143 666h471l205 204v205h-90l37 45q14 17 27 37q58 -27 93.5 -81.5t35.5 -119.5v-14q-6 -73 -52 -129l-18 -22l70 -23v-205h-471zM223 897l96 49q-7 -9 -25 -30t-28 -33z" />
<glyph unicode="&#xb3;" horiz-adv-x="956" d="M158 905h51l-12 -14zM186 1075h84l-14 -22zM297 676q34 -10 65 -10q93 0 158 65l205 205q66 63 66 156q0 81 -54 145l176 -59v-68l-102 -154q82 -69 82 -172q0 -92 -65.5 -156.5t-157.5 -64.5q-30 0 -68 10q-31 9 -162.5 54.5t-142.5 48.5z" />
<glyph unicode="&#xb4;" horiz-adv-x="1261" d="M264 1348l588 180l133 133l113 -39l61 -197l-588 -180z" />
<glyph unicode="&#xb6;" horiz-adv-x="1761" d="M573 -256h615l205 205v1126l102 103v34l102 -34v-308h-102v-1228h-614z" />
<glyph unicode="&#xb7;" horiz-adv-x="798" d="M248 367q24 -9 49 -9q64 0 109 45l176 177l71 -25q35 -12 60 -37q44 -44 44 -108.5t-44 -108.5q-45 -45 -109 -45q-28 0 -49 8z" />
<glyph unicode="&#xb8;" horiz-adv-x="870" d="M205 -461h256l205 205v35l102 -35v-307h-256z" />
<glyph unicode="&#xb9;" horiz-adv-x="696" d="M143 666h205l205 204v342l102 -34v-615h-204z" />
<glyph unicode="&#xba;" horiz-adv-x="1228" d="M414 682q50 -16 98 -16q127 0 217 90l205 205q60 60 82 145q51 -42 80.5 -104t29.5 -132q0 -128 -90 -217.5t-217 -89.5q-45 0 -98 17z" />
<glyph unicode="&#xbb;" horiz-adv-x="1511" d="M377 20l205 205l215 310l14 -23l-221 -315l194 -136l-100 -143zM842 20l205 205l288 414l158 -229l-344 -492z" />
<glyph unicode="&#xbc;" horiz-adv-x="2062" d="M326 666h204l205 204v342l103 -34v-547l-52 -68h-153zM451 -305l204 205l1008 1331l12 -2l205 -156l-383 -504l-55 13l-205 -205l-51 -219l-428 -566zM1116 -137h221v-74zM1337 -256h205l205 205v51l70 68v114l32 -12v-182l68 -23v-205h-68v-118h-204z" />
<glyph unicode="&#xbd;" horiz-adv-x="2058" d="M326 666h204l205 204v342l101 -34v-547l-52 -68h-153zM449 -305l204 205l1008 1329l14 -2l203 -154l-418 -553q-10 -6 -26 -22t-57.5 -57t-90 -90t-57.5 -58q-66 -66 -66 -156v-6l-407 -539zM1137 -256h471l204 205v205h-90l37 45q17 21 27 39q58 -27 93.5 -82.5 t35.5 -120.5v-15q-6 -75 -51 -129l-19 -22l70 -23v-204h-471zM1217 -25l96 50q-7 -9 -25 -30t-28 -34z" />
<glyph unicode="&#xbe;" horiz-adv-x="2093" d="M262 905h51l-14 -14zM289 1075h86l-15 -22zM399 676q38 -10 68 -10q93 0 158 65l204 205q29 29 47.5 71.5t18.5 84.5q0 82 -53 145l178 -59v-68l-102 -154q73 -63 79 -157l-176 -232q-28 -4 -45 -4q-34 0 -67 10zM481 -305l205 205l1008 1329l12 -2l205 -154l-383 -504 l-55 13l-205 -205l-51 -219l-429 -566zM1147 -137h221v-74zM1368 -256h205l207 205v51l67 68v114l35 -12v-182l68 -23v-205h-68v-118h-205z" />
<glyph unicode="&#xbf;" horiz-adv-x="1439" d="M475 -231q73 -25 154 -25q99 0 187.5 37.5t156.5 103.5q16 17 94.5 96t99.5 101l232 -105q-48 -148 -175 -241.5t-288 -93.5q-80 0 -154 24q-26 9 -154.5 52t-152.5 51zM475 973h103l-25 -27zM657 410h125l205 204v189l103 -35v-391l-78 35q-6 -6 -43 -44t-62 -63 q-51 -11 -92 -49q-61 6 -105 49.5t-53 104.5zM885 1075l102 103v34l103 -34v-308h-103v205h-102z" />
<glyph unicode="&#xc0;" horiz-adv-x="2222" d="M123 -256h350l205 205l29 51h698l55 -102h-540l-140 -256h-350zM985 512l70 127l69 -127h-139zM1311 1391l119 118l206 -67l-61 -197l-221 68zM1544 -256h350l162 162l146 -264h-351z" />
<glyph unicode="&#xc1;" horiz-adv-x="2222" d="M123 -256h350l205 205l29 51h698l55 -102h-540l-140 -256h-350zM741 1348l363 110l-94 -92l-49 -90zM985 512h139l-69 127zM1249 1503l80 25l133 133l113 -39l61 -197l-295 -90zM1544 -256h350l162 162l146 -264h-351z" />
<glyph unicode="&#xc2;" horiz-adv-x="2222" d="M123 -256h350l205 205l29 51h698l55 -102h-540l-140 -256h-350zM745 1348l263 82l49 -17l-49 -47l-50 -90zM987 512l70 127l69 -127h-139zM1313 1389l121 120l206 -67l-61 -197l-225 68zM1544 -256h350l162 162l146 -264h-351z" />
<glyph unicode="&#xc3;" horiz-adv-x="2222" d="M123 -256h350l205 205l29 51h698l55 -102h-540l-140 -256h-350zM754 1374l39 33q44 35 96 35q36 0 72 -19q25 -14 75 -30l-26 -29l-35 -64zM987 512l70 127l69 -127h-139zM1294 1421q36 19 62 39l39 33l86 86l90 -29l131 -159l-39 -31q-52 -44 -121 -66q-49 -14 -108 -14 q-32 0 -66 6zM1544 -256h350l162 162l146 -264h-351z" />
<glyph unicode="&#xc4;" horiz-adv-x="2222" d="M123 -256h350l205 205l29 51h698l55 -102h-540l-140 -256h-350zM653 1391q24 -9 47 -9q63 0 111 48l174 174l74 -25q33 -13 57 -37q20 -20 31 -39l-139 -139l-43 -80zM985 512l70 127l69 -127h-139zM1315 1382q66 0 108 45l176 177l74 -25q35 -14 58 -37 q46 -44 46 -108.5t-46 -108.5q-42 -45 -109 -45q-28 0 -49 8l-252 82zM1544 -256h350l162 162l146 -264h-351z" />
<glyph unicode="&#xc5;" horiz-adv-x="2222" d="M121 -256h350l205 205l29 51h698l55 -102h-540l-140 -256h-350zM942 1393q42 -11 68 -11h16l-12 -12q-69 22 -72 23zM983 512l70 127l69 -127h-139zM1237 1526q78 82 121 121q14 14 26 32q44 -15 78 -49q60 -60 60 -145.5t-60 -145.5q-37 -37 -94 -53zM1542 -256h350 l162 162l146 -264h-351z" />
<glyph unicode="&#xc6;" horiz-adv-x="2760" d="M123 -256h350l205 205h424v-103h-211l-111 -204h-350zM956 461l146 266v-266h-146zM1102 -256h1126l205 205v35l102 -35v-307h-1126zM1614 717v256h614l205 205v34l102 -34v-308h-819v-153h-102zM2075 256l153 154v34l103 -34v-154h-256z" />
<glyph unicode="&#xc7;" horiz-adv-x="1923" d="M676 717q0 111 49 207q96 49 207 49q160 0 291 -103q-182 -8 -310.5 -134.5t-134.5 -307.5q-102 130 -102 289zM684 -215q62 -22 145 -35v-6l-6 -6q-8 3 -62 20.5t-77 26.5zM778 -461h256l205 205v63q136 59 238 164q161 161 186 187l219 -170l-31 -41 q-92 -121 -224 -199t-286 -100v-211h-256zM1331 748l244 186l104 104q98 -67 172 -166l31 -41l-244 -186z" />
<glyph unicode="&#xc8;" horiz-adv-x="2007" d="M348 -256h1127l204 205v35l103 -35v-307h-1127zM860 717v256h615l204 205v34l103 -34v-308h-819v-153h-103zM1311 1485l26 26l74 -26h-100zM1321 256l154 154v34l102 -34v-154h-256z" />
<glyph unicode="&#xc9;" horiz-adv-x="2007" d="M348 -256h1127l204 205v35l103 -35v-307h-1127zM860 717v256h615l204 205v34l103 -34v-308h-819v-153h-103zM1094 1485l141 43l133 133l115 -39l43 -137h-432zM1321 256l154 154v34l102 -34v-154h-256z" />
<glyph unicode="&#xca;" horiz-adv-x="2007" d="M348 -256h1127l204 205v35l103 -35v-307h-1127zM860 717v256h615l204 205v34l103 -34v-308h-819v-153h-103zM1311 1485l24 24l74 -24h-98zM1321 256l154 154v34l102 -34v-154h-256z" />
<glyph unicode="&#xcb;" horiz-adv-x="2007" d="M348 -256h1127l204 205v35l103 -35v-307h-1127zM770 1485l119 119l72 -25q34 -12 59 -37q24 -24 37 -57h-287zM860 717v256h615l204 205v34l103 -34v-308h-819v-153h-103zM1321 256l154 154v34l102 -34v-154h-256zM1384 1485l119 119l72 -25q34 -12 59 -37q24 -24 37 -57 h-287z" />
<glyph unicode="&#xcc;" d="M178 1528l320 -98l-6 -7zM348 -256h307l205 205v1263l103 -34v-1536h-308zM860 1311v131l68 67l205 -67l-60 -197z" />
<glyph unicode="&#xcd;" d="M238 1348l258 79l-125 -124zM348 -256h307l205 205v1263l103 -34v-1536h-308zM684 1485l141 43l133 133l115 -39l60 -197l-273 -84v144h-176z" />
<glyph unicode="&#xce;" d="M238 1348l258 79l-125 -124zM348 -256h307l205 205v1263l103 -34v-1536h-308zM860 1311v131l68 69l205 -69l-60 -197z" />
<glyph unicode="&#xcf;" d="M145 1391q27 -9 50 -9q63 0 108 45l176 177l72 -25q34 -12 59 -37q24 -24 37 -57h-94l-172 -172zM348 -256h307l205 205v1263l103 -34v-1536h-308zM860 1358v33q37 15 58 36l176 177l71 -25q35 -12 60 -37q44 -44 44 -108.5t-44 -108.5q-45 -45 -109 -45q-28 0 -49 8z " />
<glyph unicode="&#xd0;" horiz-adv-x="2150" d="M246 154h205v-68zM451 -256h563q156 0 296 59.5t246 165.5q16 15 57.5 56.5t90.5 91t57 57.5q107 107 166.5 247t59.5 296q0 11 -5 84q107 -181 107 -391q0 -209 -103 -385.5t-279.5 -279.5t-385.5 -103h-563zM963 666v307h51q161 0 289 -103h-238v-204h-102zM1065 256 l102 102v35l103 -35v-100q-16 -2 -51 -2h-154z" />
<glyph unicode="&#xd1;" horiz-adv-x="2232" d="M348 -256h307l205 205v497l103 -98v-706h-308zM758 1374l39 33q21 18 51 27q28 8 45 8q38 0 74 -19q82 -43 166 -43q47 0 106 17q71 23 121 65l39 31l86 86l92 -29l53 -65h-53l-201 -201q-48 8 -104 37q-34 18 -72 18q-26 0 -45 -8q-28 -6 -51 -26l-39 -33zM1595 -256h84 l205 205v1263l103 -34v-1536h-84z" />
<glyph unicode="&#xd2;" horiz-adv-x="2027" d="M588 1528l278 -84q-10 -4 -12 -4zM655 717q0 109 50 207q96 49 206 49q160 0 291 -103q-182 -8 -310 -135.5t-134 -308.5q-103 131 -103 291zM666 -215q118 -41 245 -41q157 0 297 59.5t246 165.5q8 8 57.5 57t91 90.5t56.5 57.5q106 106 165.5 246.5t59.5 296.5 q0 26 -4 84q107 -181 107 -391q0 -209 -103 -385.5t-279.5 -279.5t-385.5 -103q-132 0 -250 41q-57 19 -303 102zM1292 1464l45 45l205 -67l-22 -72q-111 68 -228 94z" />
<glyph unicode="&#xd3;" horiz-adv-x="2027" d="M647 1348l58 18l-35 -25zM655 717q0 109 50 207q96 49 206 49q160 0 291 -103q-182 -8 -310 -135.5t-134 -308.5q-103 131 -103 291zM666 -215q118 -41 245 -41q157 0 297 59.5t246 165.5q8 8 57.5 57t91 90.5t56.5 57.5q106 106 165.5 246.5t59.5 296.5q0 26 -4 84 q107 -181 107 -391q0 -209 -103 -385.5t-279.5 -279.5t-385.5 -103q-132 0 -250 41q-57 19 -303 102zM1092 1485l143 43l133 133l115 -39l59 -197l-78 -24q-165 84 -348 84h-24z" />
<glyph unicode="&#xd4;" horiz-adv-x="2027" d="M647 1348l58 18l-35 -25zM655 717q0 109 50 207q96 49 206 49q160 0 291 -103q-182 -8 -310 -135.5t-134 -308.5q-103 131 -103 291zM666 -215q118 -41 245 -41q157 0 297 59.5t246 165.5q8 8 57.5 57t91 90.5t56.5 57.5q106 106 165.5 246.5t59.5 296.5q0 26 -4 84 q107 -181 107 -391q0 -209 -103 -385.5t-279.5 -279.5t-385.5 -103q-132 0 -250 41q-57 19 -303 102zM1292 1464l45 45l205 -67l-22 -72q-120 70 -228 94z" />
<glyph unicode="&#xd5;" horiz-adv-x="2027" d="M655 717q0 109 50 207q96 49 206 49q160 0 291 -103q-182 -8 -310 -135.5t-134 -308.5q-103 131 -103 291zM655 1374l39 33q31 23 51 27q19 8 48 8q11 0 23 -2t18 -4l6 -2q-35 -14 -70 -32t-52 -29l-18 -11zM666 -215q118 -41 245 -41q157 0 297 59.5t246 165.5 q8 8 57.5 57t91 90.5t56.5 57.5q106 106 165.5 246.5t59.5 296.5q0 26 -4 84q107 -181 107 -391q0 -209 -103 -385.5t-279.5 -279.5t-385.5 -103q-132 0 -250 41q-57 19 -303 102zM1268 1470l28 23l86 86l93 -29l131 -159l-56 -41q-61 43 -131.5 73t-110.5 39z" />
<glyph unicode="&#xd6;" horiz-adv-x="2027" d="M553 1391q24 -9 51 -9q64 0 109 45l176 177l72 -25q34 -12 59 -37q23 -26 37 -61q-206 -15 -377 -131zM655 717q0 109 50 207q96 49 206 49q160 0 291 -103q-182 -8 -310 -135.5t-134 -308.5q-103 131 -103 291zM666 -215q118 -41 245 -41q157 0 297 59.5t246 165.5 q8 8 57.5 57t91 90.5t56.5 57.5q106 106 165.5 246.5t59.5 296.5q0 26 -4 84q107 -181 107 -391q0 -209 -103 -385.5t-279.5 -279.5t-385.5 -103q-132 0 -250 41q-57 19 -303 102zM1350 1448l153 156l72 -25q34 -12 59 -37q44 -44 44 -108.5t-44 -108.5q-8 -8 -24 -20 q-117 97 -260 143z" />
<glyph unicode="&#xd7;" horiz-adv-x="1673" d="M422 -41l289 289l258 -256l-148 -146zM1001 -41l361 363l256 -259l-217 -217zM1180 717l159 160l62 -17l217 -217l-182 -182z" />
<glyph unicode="&#xd8;" horiz-adv-x="2125" d="M381 -285l156 156q192 -127 424 -127q156 0 296 59.5t246 165.5q16 15 57.5 56.5t90.5 91t57 57.5q106 106 165.5 246t59.5 297q0 22 -4 80q107 -181 107 -387q0 -209 -103 -385.5t-279.5 -279.5t-385.5 -103q-130 0 -248 41l-197 65l-135 -135zM705 717q0 111 49 207 q96 49 207 49q106 0 198 -45l-409 -410q-45 92 -45 199zM967 301l409 410q45 -92 45 -199q0 -111 -49 -207q-96 -49 -207 -49q-106 0 -198 45zM1806 1141l54 53l204 -205l-141 -147q-26 159 -117 299z" />
<glyph unicode="&#xd9;" horiz-adv-x="2150" d="M760 -221q103 -35 213 -35q136 0 257.5 51.5t213.5 143.5q15 15 57 57.5t89.5 89t58.5 57.5q92 92 143 213.5t51 257.5v598l103 -34v-871q0 -181 -89.5 -334.5t-242.5 -242t-334 -88.5q-110 0 -211 34q-155 48 -309 103zM819 614v598l103 -34v-816q-103 108 -103 252z M819 1470v7l418 -129l162 161l121 -41l-166 -165l-398 122z" />
<glyph unicode="&#xda;" horiz-adv-x="2150" d="M760 -221q103 -35 213 -35q136 0 257.5 51.5t213.5 143.5q15 15 57 57.5t89.5 89t58.5 57.5q92 92 143 213.5t51 257.5v598l103 -34v-871q0 -181 -89.5 -334.5t-242.5 -242t-334 -88.5q-110 0 -211 34q-155 48 -309 103zM819 614v598l103 -34v-816q-103 108 -103 252z M819 1311v71l477 146l134 133l114 -39l43 -137h-51l-115 -115l-403 -125z" />
<glyph unicode="&#xdb;" horiz-adv-x="2150" d="M760 -221q103 -35 213 -35q136 0 257.5 51.5t213.5 143.5q15 15 57 57.5t89.5 89t58.5 57.5q92 92 143 213.5t51 257.5v598l103 -34v-871q0 -181 -89.5 -334.5t-242.5 -242t-334 -88.5q-110 0 -211 34q-155 48 -309 103zM819 614v598l103 -34v-816q-103 108 -103 252z M819 1311v71l154 48l264 -82l160 161l123 -41l-166 -165l-74 24l-264 -82z" />
<glyph unicode="&#xdc;" horiz-adv-x="2150" d="M760 -221q103 -35 213 -35q136 0 257.5 51.5t213.5 143.5q15 15 57 57.5t89.5 89t58.5 57.5q92 92 143 213.5t51 257.5v598l103 -34v-871q0 -181 -89.5 -334.5t-242.5 -242t-334 -88.5q-110 0 -211 34q-155 48 -309 103zM819 614v598l103 -34v-816q-103 108 -103 252z M819 1323v150l131 131l72 -25q34 -12 59 -37q44 -44 44 -108.5t-44 -108.5q-42 -45 -108 -45q-28 0 -49 8zM1231 1391q36 -9 49 -9q67 0 109 45l176 177l71 -25q35 -12 60 -37q24 -24 37 -57h-197l-147 -148z" />
<glyph unicode="&#xdd;" horiz-adv-x="1828" d="M657 -256h308l204 205v551l478 760l243 -82l-618 -985v-551h-307zM670 1384l465 144l133 133l114 -39l43 -137l-92 -92l-477 -148l-123 39z" />
<glyph unicode="&#xde;" horiz-adv-x="1904" d="M348 -256h307l205 205h51q115 0 218 43.5t180 120.5q171 171 204 206q78 76 122 179.5t44 218.5v16q103 -150 103 -323q0 -153 -75.5 -283t-205 -205.5t-282.5 -75.5h-256v-204h-308zM860 461v307h51q62 0 115.5 -27.5t89.5 -74.5h-153v-205h-103z" />
<glyph unicode="&#xdf;" horiz-adv-x="1822" d="M348 -256h307l205 205v180q28 -44 58 -70q45 -45 45 -108v-207v-102h-308zM860 641q21 33 58 70q45 42 45 108q0 50 -28.5 89t-74.5 57v-324zM963 -256h307l205 205v188q102 -130 102 -289v-206h-307zM1295 589.5q0 64.5 44 108.5q61 61 97 141.5t39 168.5 q102 -130 102 -291q0 -191 -135 -326q-14 -14 -19 -24q-35 65 -84 114q-44 44 -44 108.5z" />
<glyph unicode="&#xe0;" horiz-adv-x="2222" d="M123 -256h350l205 205l29 51h698l55 -102h-540l-140 -256h-350zM985 512l70 127l69 -127h-139zM1311 1391l119 118l206 -67l-61 -197l-221 68zM1544 -256h350l162 162l146 -264h-351z" />
<glyph unicode="&#xe1;" horiz-adv-x="2222" d="M123 -256h350l205 205l29 51h698l55 -102h-540l-140 -256h-350zM741 1348l363 110l-94 -92l-49 -90zM985 512h139l-69 127zM1249 1503l80 25l133 133l113 -39l61 -197l-295 -90zM1544 -256h350l162 162l146 -264h-351z" />
<glyph unicode="&#xe2;" horiz-adv-x="2222" d="M123 -256h350l205 205l29 51h698l55 -102h-540l-140 -256h-350zM745 1348l263 82l49 -17l-49 -47l-50 -90zM987 512l70 127l69 -127h-139zM1313 1389l121 120l206 -67l-61 -197l-225 68zM1544 -256h350l162 162l146 -264h-351z" />
<glyph unicode="&#xe3;" horiz-adv-x="2222" d="M123 -256h350l205 205l29 51h698l55 -102h-540l-140 -256h-350zM754 1374l39 33q44 35 96 35q36 0 72 -19q25 -14 75 -30l-26 -29l-35 -64zM987 512l70 127l69 -127h-139zM1294 1421q36 19 62 39l39 33l86 86l90 -29l131 -159l-39 -31q-52 -44 -121 -66q-49 -14 -108 -14 q-32 0 -66 6zM1544 -256h350l162 162l146 -264h-351z" />
<glyph unicode="&#xe4;" horiz-adv-x="2222" d="M123 -256h350l205 205l29 51h698l55 -102h-540l-140 -256h-350zM653 1391q24 -9 47 -9q63 0 111 48l174 174l74 -25q33 -13 57 -37q20 -20 31 -39l-139 -139l-43 -80zM985 512l70 127l69 -127h-139zM1315 1382q66 0 108 45l176 177l74 -25q35 -14 58 -37 q46 -44 46 -108.5t-46 -108.5q-42 -45 -109 -45q-28 0 -49 8l-252 82zM1544 -256h350l162 162l146 -264h-351z" />
<glyph unicode="&#xe5;" horiz-adv-x="2222" d="M121 -256h350l205 205l29 51h698l55 -102h-540l-140 -256h-350zM942 1393q42 -11 68 -11h16l-12 -12q-69 22 -72 23zM985 512l70 127l69 -127h-139zM1237 1526q78 82 121 121q14 14 26 32q44 -15 78 -49q60 -60 60 -145.5t-60 -145.5q-37 -37 -94 -53zM1542 -256h350 l162 162l146 -264h-351z" />
<glyph unicode="&#xe6;" horiz-adv-x="2760" d="M123 -256h350l205 205h424v-103h-211l-111 -204h-350zM956 461l146 266v-266h-146zM1102 -256h1126l205 205v35l102 -35v-307h-1126zM1614 717v256h614l205 205v34l102 -34v-308h-819v-153h-102zM2075 256l153 154v34l103 -34v-154h-256z" />
<glyph unicode="&#xe7;" horiz-adv-x="1923" d="M676 717q0 111 49 207q96 49 207 49q160 0 291 -103q-182 -8 -310.5 -134.5t-134.5 -307.5q-102 130 -102 289zM684 -215q62 -22 145 -35v-6l-6 -6q-8 3 -62 20.5t-77 26.5zM778 -461h256l205 205v63q136 59 238 164q161 161 186 187l219 -170l-31 -41 q-92 -121 -224 -199t-286 -100v-211h-256zM1331 748l244 186l104 104q98 -67 172 -166l31 -41l-244 -186z" />
<glyph unicode="&#xe8;" horiz-adv-x="2007" d="M348 -256h1127l204 205v35l103 -35v-307h-1127zM860 717v256h615l204 205v34l103 -34v-308h-819v-153h-103zM1311 1485l26 26l74 -26h-100zM1321 256l154 154v34l102 -34v-154h-256z" />
<glyph unicode="&#xe9;" horiz-adv-x="2007" d="M348 -256h1127l204 205v35l103 -35v-307h-1127zM860 717v256h615l204 205v34l103 -34v-308h-819v-153h-103zM1094 1485l141 43l133 133l115 -39l43 -137h-432zM1321 256l154 154v34l102 -34v-154h-256z" />
<glyph unicode="&#xea;" horiz-adv-x="2007" d="M348 -256h1127l204 205v35l103 -35v-307h-1127zM860 717v256h615l204 205v34l103 -34v-308h-819v-153h-103zM1311 1485l24 24l74 -24h-98zM1321 256l154 154v34l102 -34v-154h-256z" />
<glyph unicode="&#xeb;" horiz-adv-x="2007" d="M348 -256h1127l204 205v35l103 -35v-307h-1127zM770 1485l119 119l72 -25q34 -12 59 -37q24 -24 37 -57h-287zM860 717v256h615l204 205v34l103 -34v-308h-819v-153h-103zM1321 256l154 154v34l102 -34v-154h-256zM1384 1485l119 119l72 -25q34 -12 59 -37q24 -24 37 -57 h-287z" />
<glyph unicode="&#xec;" horiz-adv-x="1157" d="M178 1528l320 -98l-6 -7zM348 -256h307l205 205v1263l103 -34v-1536h-308zM860 1311v131l68 67l205 -67l-60 -197z" />
<glyph unicode="&#xed;" d="M238 1348l258 79l-125 -124zM348 -256h307l205 205v1263l103 -34v-1536h-308zM684 1485l141 43l133 133l115 -39l60 -197l-273 -84v144h-176z" />
<glyph unicode="&#xee;" d="M238 1348l258 79l-125 -124zM348 -256h307l205 205v1263l103 -34v-1536h-308zM860 1311v131l68 69l205 -69l-60 -197z" />
<glyph unicode="&#xef;" d="M145 1391q27 -9 50 -9q63 0 108 45l176 177l72 -25q34 -12 59 -37q24 -24 37 -57h-94l-172 -172zM348 -256h307l205 205v1263l103 -34v-1536h-308zM860 1358v33q37 15 58 36l176 177l71 -25q35 -12 60 -37q44 -44 44 -108.5t-44 -108.5q-45 -45 -109 -45q-28 0 -49 8z " />
<glyph unicode="&#xf0;" horiz-adv-x="2150" d="M246 154h205v-68zM451 -256h563q156 0 296 59.5t246 165.5q16 15 57.5 56.5t90.5 91t57 57.5q107 107 166.5 247t59.5 296q0 11 -5 84q107 -181 107 -391q0 -209 -103 -385.5t-279.5 -279.5t-385.5 -103h-563zM963 666v307h51q161 0 289 -103h-238v-204h-102zM1065 256 l102 102v35l103 -35v-100q-16 -2 -51 -2h-154z" />
<glyph unicode="&#xf1;" horiz-adv-x="2232" d="M348 -256h307l205 205v497l103 -98v-706h-308zM758 1374l39 33q21 18 51 27q28 8 45 8q38 0 74 -19q82 -43 166 -43q47 0 106 17q71 23 121 65l39 31l86 86l92 -29l53 -65h-53l-201 -201q-48 8 -104 37q-34 18 -72 18q-26 0 -45 -8q-28 -6 -51 -26l-39 -33zM1595 -256h84 l205 205v1263l103 -34v-1536h-84z" />
<glyph unicode="&#xf2;" horiz-adv-x="2027" d="M588 1528l278 -84q-10 -4 -12 -4zM655 717q0 109 50 207q96 49 206 49q160 0 291 -103q-182 -8 -310 -135.5t-134 -308.5q-103 131 -103 291zM666 -215q118 -41 245 -41q157 0 297 59.5t246 165.5q8 8 57.5 57t91 90.5t56.5 57.5q106 106 165.5 246.5t59.5 296.5 q0 26 -4 84q107 -181 107 -391q0 -209 -103 -385.5t-279.5 -279.5t-385.5 -103q-132 0 -250 41q-57 19 -303 102zM1292 1464l45 45l205 -67l-22 -72q-111 68 -228 94z" />
<glyph unicode="&#xf3;" horiz-adv-x="2027" d="M647 1348l58 18l-35 -25zM655 717q0 109 50 207q96 49 206 49q160 0 291 -103q-182 -8 -310 -135.5t-134 -308.5q-103 131 -103 291zM666 -215q118 -41 245 -41q157 0 297 59.5t246 165.5q8 8 57.5 57t91 90.5t56.5 57.5q106 106 165.5 246.5t59.5 296.5q0 26 -4 84 q107 -181 107 -391q0 -209 -103 -385.5t-279.5 -279.5t-385.5 -103q-132 0 -250 41q-57 19 -303 102zM1092 1485l143 43l133 133l115 -39l59 -197l-78 -24q-165 84 -348 84h-24z" />
<glyph unicode="&#xf4;" horiz-adv-x="2027" d="M647 1348l58 18l-35 -25zM655 717q0 109 50 207q96 49 206 49q160 0 291 -103q-182 -8 -310 -135.5t-134 -308.5q-103 131 -103 291zM666 -215q118 -41 245 -41q157 0 297 59.5t246 165.5q8 8 57.5 57t91 90.5t56.5 57.5q106 106 165.5 246.5t59.5 296.5q0 26 -4 84 q107 -181 107 -391q0 -209 -103 -385.5t-279.5 -279.5t-385.5 -103q-132 0 -250 41q-57 19 -303 102zM1292 1464l45 45l205 -67l-22 -72q-120 70 -228 94z" />
<glyph unicode="&#xf5;" horiz-adv-x="2027" d="M655 717q0 109 50 207q96 49 206 49q160 0 291 -103q-182 -8 -310 -135.5t-134 -308.5q-103 131 -103 291zM655 1374l39 33q31 23 51 27q19 8 48 8q11 0 23 -2t18 -4l6 -2q-35 -14 -70 -32t-52 -29l-18 -11zM666 -215q118 -41 245 -41q157 0 297 59.5t246 165.5 q8 8 57.5 57t91 90.5t56.5 57.5q106 106 165.5 246.5t59.5 296.5q0 26 -4 84q107 -181 107 -391q0 -209 -103 -385.5t-279.5 -279.5t-385.5 -103q-132 0 -250 41q-57 19 -303 102zM1268 1470l28 23l86 86l93 -29l131 -159l-56 -41q-61 43 -131.5 73t-110.5 39z" />
<glyph unicode="&#xf6;" horiz-adv-x="2027" d="M553 1391q24 -9 51 -9q64 0 109 45l176 177l72 -25q34 -12 59 -37q23 -26 37 -61q-206 -15 -377 -131zM655 717q0 109 50 207q96 49 206 49q160 0 291 -103q-182 -8 -310 -135.5t-134 -308.5q-103 131 -103 291zM666 -215q118 -41 245 -41q157 0 297 59.5t246 165.5 q8 8 57.5 57t91 90.5t56.5 57.5q106 106 165.5 246.5t59.5 296.5q0 26 -4 84q107 -181 107 -391q0 -209 -103 -385.5t-279.5 -279.5t-385.5 -103q-132 0 -250 41q-57 19 -303 102zM1350 1448l153 156l72 -25q34 -12 59 -37q44 -44 44 -108.5t-44 -108.5q-8 -8 -24 -20 q-117 97 -260 143z" />
<glyph unicode="&#xf7;" horiz-adv-x="1740" d="M205 358h530l-104 -102h-119zM702 -92q33 -10 66 -10q83 0 145 59l205 205q16 16 25 31q46 -16 78 -48q60 -60 60 -145t-60 -145q-63 -60 -146 -60q-30 0 -63 10q-127 41 -310 103zM1006 870l112 111q4 5 12.5 15.5t12.5 15.5q47 -16 78 -47q36 -36 53 -95h-268z M1171 256q12 51 0 102h160l205 205v35l102 -35v-307h-467zM1171 256q12 51 0 102h160l205 205v35l102 -35v-307h-467z" />
<glyph unicode="&#xf8;" horiz-adv-x="2125" d="M381 -285l156 156q192 -127 424 -127q156 0 296 59.5t246 165.5q16 15 57.5 56.5t90.5 91t57 57.5q106 106 165.5 246t59.5 297q0 22 -4 80q107 -181 107 -387q0 -209 -103 -385.5t-279.5 -279.5t-385.5 -103q-130 0 -248 41l-197 65l-135 -135zM705 717q0 111 49 207 q96 49 207 49q106 0 198 -45l-409 -410q-45 92 -45 199zM967 301l409 410q45 -92 45 -199q0 -111 -49 -207q-96 -49 -207 -49q-106 0 -198 45zM1806 1141l54 53l204 -205l-141 -147q-26 159 -117 299z" />
<glyph unicode="&#xf9;" horiz-adv-x="2150" d="M760 -221q103 -35 213 -35q136 0 257.5 51.5t213.5 143.5q15 15 57 57.5t89.5 89t58.5 57.5q92 92 143 213.5t51 257.5v598l103 -34v-871q0 -181 -89.5 -334.5t-242.5 -242t-334 -88.5q-110 0 -211 34q-155 48 -309 103zM819 614v598l103 -34v-816q-103 108 -103 252z M819 1470v7l418 -129l162 161l121 -41l-166 -165l-398 122z" />
<glyph unicode="&#xfa;" horiz-adv-x="2150" d="M760 -221q103 -35 213 -35q136 0 257.5 51.5t213.5 143.5q15 15 57 57.5t89.5 89t58.5 57.5q92 92 143 213.5t51 257.5v598l103 -34v-871q0 -181 -89.5 -334.5t-242.5 -242t-334 -88.5q-110 0 -211 34q-155 48 -309 103zM819 614v598l103 -34v-816q-103 108 -103 252z M819 1311v71l477 146l134 133l114 -39l43 -137h-51l-115 -115l-403 -125z" />
<glyph unicode="&#xfb;" horiz-adv-x="2150" d="M760 -221q103 -35 213 -35q136 0 257.5 51.5t213.5 143.5q15 15 57 57.5t89.5 89t58.5 57.5q92 92 143 213.5t51 257.5v598l103 -34v-871q0 -181 -89.5 -334.5t-242.5 -242t-334 -88.5q-110 0 -211 34q-155 48 -309 103zM819 614v598l103 -34v-816q-103 108 -103 252z M819 1311v71l154 48l264 -82l160 161l123 -41l-166 -165l-74 24l-264 -82z" />
<glyph unicode="&#xfc;" horiz-adv-x="2150" d="M760 -221q103 -35 213 -35q136 0 257.5 51.5t213.5 143.5q15 15 57 57.5t89.5 89t58.5 57.5q92 92 143 213.5t51 257.5v598l103 -34v-871q0 -181 -89.5 -334.5t-242.5 -242t-334 -88.5q-110 0 -211 34q-155 48 -309 103zM819 614v598l103 -34v-816q-103 108 -103 252z M819 1323v150l131 131l72 -25q34 -12 59 -37q44 -44 44 -108.5t-44 -108.5q-42 -45 -108 -45q-28 0 -49 8zM1231 1391q36 -9 49 -9q67 0 109 45l176 177l71 -25q35 -12 60 -37q24 -24 37 -57h-197l-147 -148z" />
<glyph unicode="&#xfd;" horiz-adv-x="1828" d="M657 -256h308l204 205v551l478 760l243 -82l-618 -985v-551h-307zM670 1384l465 144l133 133l114 -39l43 -137l-92 -92l-477 -148l-123 39z" />
<glyph unicode="&#xfe;" horiz-adv-x="1904" d="M348 -256h307l205 205h51q115 0 218 43.5t180 120.5q171 171 204 206q78 76 122 179.5t44 218.5v16q103 -150 103 -323q0 -153 -75.5 -283t-205 -205.5t-282.5 -75.5h-256v-204h-308zM860 461v307h51q62 0 115.5 -27.5t89.5 -74.5h-153v-205h-103z" />
<glyph unicode="&#xff;" horiz-adv-x="1828" d="M633 1446l158 160l71 -27q35 -12 60 -37q44 -44 44 -108.5t-44 -108.5q-45 -45 -109 -45q-28 0 -49 8l-41 15zM657 -256h308l204 205v551l478 760l243 -82l-618 -985v-551h-307zM1065 1393q29 -11 53 -11q64 0 109 45l176 177l72 -25q34 -12 59 -37q24 -24 37 -57h-146 l-159 -160z" />
<glyph unicode="&#x152;" horiz-adv-x="2672" d="M655 717q0 109 50 207q96 49 206 49h103v-150q-112 -56 -182 -162.5t-74 -234.5q-103 131 -103 291zM668 -217q122 -39 243 -39h1229l205 205v35l102 -35v-307h-1228q-122 0 -244 39q-183 64 -307 102zM1526 717v256h614l205 205v34l102 -34v-308h-819v-153h-102z M1987 256l153 154v34l103 -34v-154h-256z" />
<glyph unicode="&#x153;" horiz-adv-x="2672" d="M655 717q0 109 50 207q96 49 206 49h103v-150q-112 -56 -182 -162.5t-74 -234.5q-103 131 -103 291zM668 -217q122 -39 243 -39h1229l205 205v35l102 -35v-307h-1228q-122 0 -244 39q-183 64 -307 102zM1526 717v256h614l205 205v34l102 -34v-308h-819v-153h-102z M1987 256l153 154v34l103 -34v-154h-256z" />
<glyph unicode="&#x178;" horiz-adv-x="1828" d="M633 1446l158 160l71 -27q35 -12 60 -37q44 -44 44 -108.5t-44 -108.5q-45 -45 -109 -45q-28 0 -49 8l-41 15zM657 -256h308l204 205v551l478 760l243 -82l-618 -985v-551h-307zM1065 1393q29 -11 53 -11q64 0 109 45l176 177l72 -25q34 -12 59 -37q24 -24 37 -57h-146 l-159 -160z" />
<glyph unicode="&#x2c6;" horiz-adv-x="1261" d="M264 1348l264 82l265 -82l161 161l205 -67l-59 -197l-264 82l-265 -82z" />
<glyph unicode="&#x2dc;" horiz-adv-x="1384" d="M334 1374l39 33q30 22 51 27q19 8 45 8q36 0 72 -19q82 -43 168 -43q47 0 106 17q71 23 121 65l39 31l86 86l92 -29l129 -159l-39 -31q-52 -44 -121 -66q-56 -16 -106 -16q-86 0 -168 43q-34 18 -72 18q-26 0 -45 -8q-23 -5 -51 -26l-39 -33z" />
<glyph unicode="&#x2000;" horiz-adv-x="839" />
<glyph unicode="&#x2001;" horiz-adv-x="1679" />
<glyph unicode="&#x2002;" horiz-adv-x="839" />
<glyph unicode="&#x2003;" horiz-adv-x="1679" />
<glyph unicode="&#x2004;" horiz-adv-x="559" />
<glyph unicode="&#x2005;" horiz-adv-x="419" />
<glyph unicode="&#x2006;" horiz-adv-x="279" />
<glyph unicode="&#x2007;" horiz-adv-x="279" />
<glyph unicode="&#x2008;" horiz-adv-x="209" />
<glyph unicode="&#x2009;" horiz-adv-x="335" />
<glyph unicode="&#x200a;" horiz-adv-x="93" />
<glyph unicode="&#x2010;" d="M143 358h717l205 205v35l102 -35v-307h-716z" />
<glyph unicode="&#x2011;" d="M143 358h717l205 205v35l102 -35v-307h-716z" />
<glyph unicode="&#x2012;" d="M143 358h717l205 205v35l102 -35v-307h-716z" />
<glyph unicode="&#x2013;" horiz-adv-x="1740" d="M205 358h1126l205 205v35l102 -35v-307h-1126z" />
<glyph unicode="&#x2014;" horiz-adv-x="2764" d="M205 358h2150l205 205v35l102 -35v-307h-2150z" />
<glyph unicode="&#x2018;" horiz-adv-x="921" d="M205 768h307l205 205v239l102 -34v-512h-307z" />
<glyph unicode="&#x2019;" horiz-adv-x="921" d="M205 768h184l205 205l121 239l104 -34v-269l-123 -243h-184z" />
<glyph unicode="&#x201a;" horiz-adv-x="921" d="M205 -461h184l205 205l121 240l104 -35v-268l-123 -244h-184z" />
<glyph unicode="&#x201c;" horiz-adv-x="1331" d="M205 768h307l102 102v-102h308l204 205v239l103 -34v-512h-307l-103 34v-34h-307z" />
<glyph unicode="&#x201d;" horiz-adv-x="1331" d="M205 768h184l207 205l18 39v-244h185l207 205l118 239l105 -34v-269l-123 -243h-184l-193 63l-33 -63h-184z" />
<glyph unicode="&#x201e;" horiz-adv-x="1331" d="M205 -461h184l207 205l18 39v-244h185l207 205l118 240l105 -35v-268l-123 -244h-184l-193 63l-33 -63h-184z" />
<glyph unicode="&#x2022;" horiz-adv-x="1126" d="M377 270q38 -14 84 -14q103 0 180 74l207 207q40 40 57 90q55 -36 87 -93.5t32 -123.5q0 -106 -75 -181t-181 -75q-42 0 -82 12q-30 11 -164 55.5t-145 48.5z" />
<glyph unicode="&#x2026;" horiz-adv-x="2048" d="M205 -256h307l205 205v35l51 -19v-221h307l205 205v35l51 -19v-221h307l205 205v35l103 -35v-307h-308l-256 86v-86h-307l-256 86v-86h-307z" />
<glyph unicode="&#x202f;" horiz-adv-x="335" />
<glyph unicode="&#x2039;" horiz-adv-x="1046" d="M467 20l252 177l139 139l168 -242l-252 -176zM702 717l111 157l213 -149l-164 -236z" />
<glyph unicode="&#x203a;" horiz-adv-x="1046" d="M375 20l207 205l286 412l160 -227l-344 -492z" />
<glyph unicode="&#x205f;" horiz-adv-x="419" />
<glyph unicode="&#x20ac;" horiz-adv-x="2127" d="M164 154h293q23 -48 65 -103h-51zM201 563h141l-35 -35zM893 -217q119 -39 244 -39q157 0 297.5 59.5t246.5 167.5l185 185l221 -168l-31 -41q-106 -142 -266.5 -223.5t-345.5 -81.5q-122 0 -244 39q-145 51 -307 102zM1124 666l103 102l14 55l166 -55l-78 -307h-112 l51 205h-144zM1139 303l51 55l14 56l166 -56l-27 -102h-2q-110 0 -202 47zM1241 823l33 129q88 -29 153 -82q-99 -3 -186 -47zM1536 748l244 186l104 104q98 -67 172 -166l31 -41l-244 -186z" />
<glyph unicode="&#x2122;" horiz-adv-x="1384" d="M143 1096h138v-45zM281 766h184l113 113v-113h184l90 90v-90h184l205 205v241l102 -34v-514h-184l-90 30v-30h-184l-113 38v-38h-184z" />
<glyph unicode="&#xe000;" horiz-adv-x="1259" d="M0 0v1260h1260v-1260h-1260z" />
</font>
</defs>
</svg>
